<svg width="1382" height="788" viewBox="0 0 1382 788" fill="none" xmlns="http://www.w3.org/2000/svg">
<rect x="182" y="526" width="10" height="49" transform="rotate(90 182 526)" fill="#D9D9D9"/>
<rect x="181.5" y="526.5" width="9" height="48" transform="rotate(90 181.5 526.5)" stroke="black" stroke-opacity="0.2"/>
<rect x="184" y="508" width="10" height="27" fill="#D9D9D9"/>
<rect x="184.5" y="508.5" width="9" height="26" stroke="black" stroke-opacity="0.2"/>
<path d="M194 522L184 522L184 526L180 526L180 536L194 536L194 522Z" fill="#D9D9D9" stroke="black" stroke-opacity="0.2" stroke-width="2"/>
<rect x="162" y="444" width="10" height="32" transform="rotate(90 162 444)" fill="#D9D9D9"/>
<rect x="161.5" y="444.5" width="9" height="31" transform="rotate(90 161.5 444.5)" stroke="black" stroke-opacity="0.2"/>
<rect x="429" y="526" width="10" height="36" transform="rotate(90 429 526)" fill="#D9D9D9"/>
<rect x="428.5" y="526.5" width="9" height="35" transform="rotate(90 428.5 526.5)" stroke="black" stroke-opacity="0.2"/>
<rect x="392" y="528" width="10" height="23" transform="rotate(-180 392 528)" fill="#D9D9D9"/>
<rect x="391.5" y="527.5" width="9" height="22" transform="rotate(-180 391.5 527.5)" stroke="black" stroke-opacity="0.2"/>
<rect x="441" y="628" width="10" height="90" transform="rotate(-180 441 628)" fill="#D9D9D9"/>
<rect x="440.5" y="627.5" width="9.00001" height="89" transform="rotate(-180 440.5 627.5)" stroke="black" stroke-opacity="0.2"/>
<rect x="441" y="640" width="10" height="40" transform="rotate(-90 441 640)" fill="#D9D9D9"/>
<rect x="441.5" y="639.5" width="9" height="39" transform="rotate(-90 441.5 639.5)" stroke="black" stroke-opacity="0.2"/>
<path d="M396 536L396 526L392 526L392 522L382 522L382 536L396 536Z" fill="#D9D9D9" stroke="black" stroke-opacity="0.2" stroke-width="2"/>
<path d="M427 526V536H431V540H441V526H427Z" fill="#D9D9D9" stroke="black" stroke-opacity="0.2" stroke-width="2"/>
<path d="M445 640L445 630L441 630L441 626L431 626L431 640L445 640Z" fill="#D9D9D9" stroke="black" stroke-opacity="0.2" stroke-width="2"/>
<rect x="580" y="304" width="10" height="37" fill="#D9D9D9"/>
<rect x="580.5" y="304.5" width="9" height="36" stroke="black" stroke-opacity="0.2"/>
<rect x="666" y="304" width="10" height="37" fill="#D9D9D9"/>
<rect x="666.5" y="304.5" width="9" height="36" stroke="black" stroke-opacity="0.2"/>
<rect x="666" y="490" width="10" height="40" fill="#D9D9D9"/>
<rect x="666.5" y="490.5" width="9" height="39" stroke="black" stroke-opacity="0.2"/>
<rect x="1208" y="422" width="10" height="106" fill="#D9D9D9"/>
<rect x="1208.5" y="422.5" width="9" height="105" stroke="black" stroke-opacity="0.2"/>
<rect x="580" y="489" width="10" height="41" fill="#D9D9D9"/>
<rect x="580.5" y="489.5" width="9" height="40" stroke="black" stroke-opacity="0.2"/>
<rect x="1018" y="134" width="10" height="121" transform="rotate(90 1018 134)" fill="#D9D9D9"/>
<rect x="1017.5" y="134.5" width="9.00001" height="120" transform="rotate(90 1017.5 134.5)" stroke="black" stroke-opacity="0.2"/>
<rect x="624" y="511" width="10" height="220" fill="#D9D9D9"/>
<rect x="624.5" y="511.5" width="9" height="219" stroke="black" stroke-opacity="0.2"/>
<rect x="1035" y="735" width="10" height="399" transform="rotate(90 1035 735)" fill="#D9D9D9"/>
<rect x="1034.5" y="735.5" width="9.00002" height="398" transform="rotate(90 1034.5 735.5)" stroke="black" stroke-opacity="0.2"/>
<rect x="1047" y="733" width="10" height="279" transform="rotate(-180 1047 733)" fill="#D9D9D9"/>
<rect x="1046.5" y="732.5" width="9.00002" height="278" transform="rotate(-180 1046.5 732.5)" stroke="black" stroke-opacity="0.2"/>
<path d="M638 745L638 735L634 735L634 731L624 731L624 745L638 745Z" fill="#D9D9D9" stroke="black" stroke-opacity="0.2" stroke-width="2"/>
<path d="M1047 731L1037 731L1037 735L1033 735L1033 745L1047 745L1047 731Z" fill="#D9D9D9" stroke="black" stroke-opacity="0.2" stroke-width="2"/>
<rect x="671" y="135" width="10" height="37" transform="rotate(90 671 135)" fill="#D9D9D9"/>
<rect x="670.5" y="135.5" width="9" height="36" transform="rotate(90 670.5 135.5)" stroke="black" stroke-opacity="0.2"/>
<rect x="623" y="148" width="10" height="193" fill="#D9D9D9"/>
<rect x="623.5" y="148.5" width="9" height="192" stroke="black" stroke-opacity="0.2"/>
<path d="M623 148L633 148L633 144L637 144L637 134L623 134L623 148Z" fill="#D9D9D9" stroke="black" stroke-opacity="0.2" stroke-width="2"/>
<rect x="1167" y="257" width="10" height="70" transform="rotate(90 1167 257)" fill="#D9D9D9"/>
<rect x="1166.5" y="257.5" width="9" height="69" transform="rotate(90 1166.5 257.5)" stroke="black" stroke-opacity="0.2"/>
<rect x="1094" y="306" width="10" height="121" transform="rotate(-180 1094 306)" fill="#D9D9D9"/>
<rect x="1093.5" y="305.5" width="9.00001" height="120" transform="rotate(-180 1093.5 305.5)" stroke="black" stroke-opacity="0.2"/>
<path d="M1095 269H1082V253.5H1095V256H1099V267.5H1095V269Z" fill="#D9D9D9" stroke="black" stroke-opacity="0.2" stroke-width="2"/>
<rect x="866" y="424" width="10" height="106" fill="#D9D9D9"/>
<rect x="866.5" y="424.5" width="9" height="105" stroke="black" stroke-opacity="0.2"/>
<rect x="219" y="446" width="326" height="30" fill="url(#paint0_linear_27_577)"/>
<rect x="716" y="374" width="526" height="30" fill="url(#paint1_linear_27_577)"/>
<rect x="159" y="412" width="60" height="100" rx="6" fill="#D9D9D9"/>
<circle cx="172" cy="423" r="5" fill="#8D8C8C"/>
<circle cx="209" cy="423" r="5" fill="#8D8C8C"/>
<circle cx="209" cy="503" r="5" fill="#8D8C8C"/>
<circle cx="172" cy="503" r="5" fill="#8D8C8C"/>
<rect x="172" y="432" width="35" height="64" rx="6" fill="url(#paint2_linear_27_577)"/>
<rect x="356" y="412" width="60" height="100" rx="6" fill="#D9D9D9"/>
<circle cx="369" cy="423" r="5" fill="#8D8C8C"/>
<circle cx="406" cy="423" r="5" fill="#8D8C8C"/>
<circle cx="406" cy="503" r="5" fill="#8D8C8C"/>
<circle cx="369" cy="503" r="5" fill="#8D8C8C"/>
<rect x="369" y="432" width="35" height="64" rx="6" fill="url(#paint3_linear_27_577)"/>
<rect x="838" y="324" width="60" height="100" rx="6" fill="#D9D9D9"/>
<circle cx="851" cy="335" r="5" fill="#8D8C8C"/>
<circle cx="888" cy="335" r="5" fill="#8D8C8C"/>
<circle cx="888" cy="415" r="5" fill="#8D8C8C"/>
<circle cx="851" cy="415" r="5" fill="#8D8C8C"/>
<rect x="851" y="344" width="35" height="64" rx="6" fill="url(#paint4_linear_27_577)"/>
<rect x="1182" y="324" width="60" height="100" rx="6" fill="#D9D9D9"/>
<circle cx="1195" cy="335" r="5" fill="#8D8C8C"/>
<circle cx="1232" cy="335" r="5" fill="#8D8C8C"/>
<circle cx="1232" cy="415" r="5" fill="#8D8C8C"/>
<circle cx="1195" cy="415" r="5" fill="#8D8C8C"/>
<rect x="1195" y="344" width="35" height="64" rx="6" fill="url(#paint5_linear_27_577)"/>
<rect x="461" y="424" width="36" height="69" fill="url(#paint6_linear_27_577)"/>
<rect x="763" y="351" width="36" height="69" fill="url(#paint7_linear_27_577)"/>
<rect x="542" y="335" width="177" height="177" rx="12" fill="#909598"/>
<rect x="565" y="363" width="128" height="119" rx="8" fill="#D9D9D9"/>
<circle cx="708" cy="495" r="5" fill="#E9E7E7"/>
<circle cx="708" cy="422" r="5" fill="#E9E7E7"/>
<circle cx="708" cy="349" r="5" fill="#E9E7E7"/>
<circle cx="629" cy="495" r="5" fill="#E9E7E7"/>
<circle cx="629" cy="349" r="5" fill="#E9E7E7"/>
<circle cx="553" cy="495" r="5" fill="#E9E7E7"/>
<circle cx="553" cy="422" r="5" fill="#E9E7E7"/>
<circle cx="553" cy="349" r="5" fill="#E9E7E7"/>
<path d="M260 146.5C235.5 151.5 192 160.378 192 172C192 183.622 208.5 184 220.5 184C232.5 184 383 172 383 172C383 172 374.511 162.041 367 161C362.103 160.321 359.444 163.027 354.5 163C345.484 162.951 341.403 157.424 332.5 156C319.559 153.93 308 160 299 158C290 156 284.5 141.5 260 146.5L260 146.5Z" fill="#6D7174" stroke="#322D31"/>
<path d="M384 172H190V282L250.5 344.5V544H189.5V575.5L247 648.5V697V742.5H328V697V648.5L384 575.5V544H321.5V344.5L384 282V172Z" fill="#B5B9BC"/>
<rect x="253" y="348" width="65" height="5" fill="#687273"/>
<rect x="253" y="538" width="65" height="5" fill="#687273"/>
<rect x="253" y="358" width="65" height="11" fill="#687273"/>
<rect x="253" y="374" width="65" height="11" fill="#687273"/>
<rect x="253" y="392" width="65" height="11" fill="#687273"/>
<rect x="253" y="408" width="65" height="11" fill="#687273"/>
<rect x="253" y="424" width="65" height="11" fill="#687273"/>
<rect x="253" y="442" width="65" height="11" fill="#687273"/>
<rect x="253" y="458" width="65" height="11" fill="#687273"/>
<rect x="253" y="474" width="65" height="11" fill="#687273"/>
<rect x="253" y="490" width="65" height="11" fill="#687273"/>
<rect x="253" y="506" width="65" height="11" fill="#687273"/>
<rect x="253" y="522" width="65" height="11" fill="#687273"/>
<rect x="247" y="697" width="81" height="14" fill="#D9D9D9"/>
<path d="M364 687L358.296 696V712.5L364 720H350L355.185 712.5V696L350 687H364Z" fill="#4D8744"/>
<rect x="286" y="699" width="72" height="10" fill="#4D8744"/>
<path d="M287 145L295.66 130L278.34 130L287 145ZM285.5 103L285.5 131.5L288.5 131.5L288.5 103L285.5 103Z" fill="#6E6F71"/>
<path d="M291 788L299.66 773L282.34 773L291 788ZM289.5 746L289.5 774.5L292.5 774.5L292.5 746L289.5 746Z" fill="#6F7376"/>
<rect x="920.5" y="302.5" width="237" height="157" rx="8.5" fill="#EBE9EC" stroke="#B9B7BA" stroke-width="3"/>
<rect x="667.5" y="56.5" width="237" height="157" rx="8.5" fill="#EBE9EC" stroke="#B9B7BA" stroke-width="3"/>
<rect x="682" y="103" width="214" height="51" fill="#F6F6F8" stroke="#B9B7BA" stroke-width="2"/>
<path d="M703.189 111.055V112.355C703.189 113.055 703.127 113.645 703.002 114.125C702.877 114.605 702.697 114.992 702.463 115.285C702.229 115.578 701.945 115.791 701.613 115.924C701.285 116.053 700.914 116.117 700.5 116.117C700.172 116.117 699.869 116.076 699.592 115.994C699.314 115.912 699.064 115.781 698.842 115.602C698.623 115.418 698.436 115.18 698.279 114.887C698.123 114.594 698.004 114.238 697.922 113.82C697.84 113.402 697.799 112.914 697.799 112.355V111.055C697.799 110.355 697.861 109.77 697.986 109.297C698.115 108.824 698.297 108.445 698.531 108.16C698.766 107.871 699.047 107.664 699.375 107.539C699.707 107.414 700.078 107.352 700.488 107.352C700.82 107.352 701.125 107.393 701.402 107.475C701.684 107.553 701.934 107.68 702.152 107.855C702.371 108.027 702.557 108.258 702.709 108.547C702.865 108.832 702.984 109.182 703.066 109.596C703.148 110.01 703.189 110.496 703.189 111.055ZM702.1 112.531V110.873C702.1 110.49 702.076 110.154 702.029 109.865C701.986 109.572 701.922 109.322 701.836 109.115C701.75 108.908 701.641 108.74 701.508 108.611C701.379 108.482 701.229 108.389 701.057 108.33C700.889 108.268 700.699 108.236 700.488 108.236C700.23 108.236 700.002 108.285 699.803 108.383C699.604 108.477 699.436 108.627 699.299 108.834C699.166 109.041 699.064 109.313 698.994 109.648C698.924 109.984 698.889 110.393 698.889 110.873V112.531C698.889 112.914 698.91 113.252 698.953 113.545C699 113.838 699.068 114.092 699.158 114.307C699.248 114.518 699.357 114.691 699.486 114.828C699.615 114.965 699.764 115.066 699.932 115.133C700.104 115.195 700.293 115.227 700.5 115.227C700.766 115.227 700.998 115.176 701.197 115.074C701.396 114.973 701.562 114.814 701.695 114.6C701.832 114.381 701.934 114.102 702 113.762C702.066 113.418 702.1 113.008 702.1 112.531Z" fill="black" fill-opacity="0.8"/>
<path d="M729.549 115.109V116H723.965V115.221L726.76 112.109C727.104 111.727 727.369 111.402 727.557 111.137C727.748 110.867 727.881 110.627 727.955 110.416C728.033 110.201 728.072 109.982 728.072 109.76C728.072 109.479 728.014 109.225 727.896 108.998C727.783 108.768 727.615 108.584 727.393 108.447C727.17 108.311 726.9 108.242 726.584 108.242C726.205 108.242 725.889 108.316 725.635 108.465C725.385 108.609 725.197 108.813 725.072 109.074C724.947 109.336 724.885 109.637 724.885 109.977H723.801C723.801 109.496 723.906 109.057 724.117 108.658C724.328 108.26 724.641 107.943 725.055 107.709C725.469 107.471 725.979 107.352 726.584 107.352C727.123 107.352 727.584 107.447 727.967 107.639C728.35 107.826 728.643 108.092 728.846 108.436C729.053 108.775 729.156 109.174 729.156 109.631C729.156 109.881 729.113 110.135 729.027 110.393C728.945 110.647 728.83 110.9 728.682 111.154C728.537 111.408 728.367 111.658 728.172 111.904C727.98 112.15 727.775 112.393 727.557 112.631L725.271 115.109H729.549ZM736.064 111.055V112.355C736.064 113.055 736.002 113.645 735.877 114.125C735.752 114.605 735.572 114.992 735.338 115.285C735.104 115.578 734.82 115.791 734.488 115.924C734.16 116.053 733.789 116.117 733.375 116.117C733.047 116.117 732.744 116.076 732.467 115.994C732.189 115.912 731.939 115.781 731.717 115.602C731.498 115.418 731.311 115.18 731.154 114.887C730.998 114.594 730.879 114.238 730.797 113.82C730.715 113.402 730.674 112.914 730.674 112.355V111.055C730.674 110.355 730.736 109.77 730.861 109.297C730.99 108.824 731.172 108.445 731.406 108.16C731.641 107.871 731.922 107.664 732.25 107.539C732.582 107.414 732.953 107.352 733.363 107.352C733.695 107.352 734 107.393 734.277 107.475C734.559 107.553 734.809 107.68 735.027 107.855C735.246 108.027 735.432 108.258 735.584 108.547C735.74 108.832 735.859 109.182 735.941 109.596C736.023 110.01 736.064 110.496 736.064 111.055ZM734.975 112.531V110.873C734.975 110.49 734.951 110.154 734.904 109.865C734.861 109.572 734.797 109.322 734.711 109.115C734.625 108.908 734.516 108.74 734.383 108.611C734.254 108.482 734.104 108.389 733.932 108.33C733.764 108.268 733.574 108.236 733.363 108.236C733.105 108.236 732.877 108.285 732.678 108.383C732.479 108.477 732.311 108.627 732.174 108.834C732.041 109.041 731.939 109.313 731.869 109.648C731.799 109.984 731.764 110.393 731.764 110.873V112.531C731.764 112.914 731.785 113.252 731.828 113.545C731.875 113.838 731.943 114.092 732.033 114.307C732.123 114.518 732.232 114.691 732.361 114.828C732.49 114.965 732.639 115.066 732.807 115.133C732.979 115.195 733.168 115.227 733.375 115.227C733.641 115.227 733.873 115.176 734.072 115.074C734.271 114.973 734.438 114.814 734.57 114.6C734.707 114.381 734.809 114.102 734.875 113.762C734.941 113.418 734.975 113.008 734.975 112.531Z" fill="black" fill-opacity="0.8"/>
<path d="M763.725 113.129V114.02H757.561V113.381L761.381 107.469H762.266L761.316 109.18L758.791 113.129H763.725ZM762.535 107.469V116H761.451V107.469H762.535ZM770.064 111.055V112.355C770.064 113.055 770.002 113.645 769.877 114.125C769.752 114.605 769.572 114.992 769.338 115.285C769.104 115.578 768.82 115.791 768.488 115.924C768.16 116.053 767.789 116.117 767.375 116.117C767.047 116.117 766.744 116.076 766.467 115.994C766.189 115.912 765.939 115.781 765.717 115.602C765.498 115.418 765.311 115.18 765.154 114.887C764.998 114.594 764.879 114.238 764.797 113.82C764.715 113.402 764.674 112.914 764.674 112.355V111.055C764.674 110.355 764.736 109.77 764.861 109.297C764.99 108.824 765.172 108.445 765.406 108.16C765.641 107.871 765.922 107.664 766.25 107.539C766.582 107.414 766.953 107.352 767.363 107.352C767.695 107.352 768 107.393 768.277 107.475C768.559 107.553 768.809 107.68 769.027 107.855C769.246 108.027 769.432 108.258 769.584 108.547C769.74 108.832 769.859 109.182 769.941 109.596C770.023 110.01 770.064 110.496 770.064 111.055ZM768.975 112.531V110.873C768.975 110.49 768.951 110.154 768.904 109.865C768.861 109.572 768.797 109.322 768.711 109.115C768.625 108.908 768.516 108.74 768.383 108.611C768.254 108.482 768.104 108.389 767.932 108.33C767.764 108.268 767.574 108.236 767.363 108.236C767.105 108.236 766.877 108.285 766.678 108.383C766.479 108.477 766.311 108.627 766.174 108.834C766.041 109.041 765.939 109.313 765.869 109.648C765.799 109.984 765.764 110.393 765.764 110.873V112.531C765.764 112.914 765.785 113.252 765.828 113.545C765.875 113.838 765.943 114.092 766.033 114.307C766.123 114.518 766.232 114.691 766.361 114.828C766.49 114.965 766.639 115.066 766.807 115.133C766.979 115.195 767.168 115.227 767.375 115.227C767.641 115.227 767.873 115.176 768.072 115.074C768.271 114.973 768.438 114.814 768.57 114.6C768.707 114.381 768.809 114.102 768.875 113.762C768.941 113.418 768.975 113.008 768.975 112.531Z" fill="black" fill-opacity="0.8"/>
<path d="M796.119 107.457H796.213V108.377H796.119C795.545 108.377 795.064 108.471 794.678 108.658C794.291 108.842 793.984 109.09 793.758 109.402C793.531 109.711 793.367 110.059 793.266 110.445C793.168 110.832 793.119 111.225 793.119 111.623V112.877C793.119 113.256 793.164 113.592 793.254 113.885C793.344 114.174 793.467 114.418 793.623 114.617C793.779 114.816 793.955 114.967 794.15 115.068C794.35 115.17 794.557 115.221 794.771 115.221C795.021 115.221 795.244 115.174 795.439 115.08C795.635 114.982 795.799 114.848 795.932 114.676C796.068 114.5 796.172 114.293 796.242 114.055C796.312 113.816 796.348 113.555 796.348 113.27C796.348 113.016 796.316 112.772 796.254 112.537C796.191 112.299 796.096 112.088 795.967 111.904C795.838 111.717 795.676 111.57 795.48 111.465C795.289 111.355 795.061 111.301 794.795 111.301C794.494 111.301 794.213 111.375 793.951 111.523C793.693 111.668 793.48 111.859 793.312 112.098C793.148 112.332 793.055 112.588 793.031 112.865L792.457 112.859C792.512 112.422 792.613 112.049 792.762 111.74C792.914 111.428 793.102 111.174 793.324 110.979C793.551 110.779 793.803 110.635 794.08 110.545C794.361 110.451 794.658 110.404 794.971 110.404C795.396 110.404 795.764 110.484 796.072 110.645C796.381 110.805 796.635 111.02 796.834 111.289C797.033 111.555 797.18 111.855 797.273 112.191C797.371 112.523 797.42 112.865 797.42 113.217C797.42 113.619 797.363 113.996 797.25 114.348C797.137 114.699 796.967 115.008 796.74 115.273C796.518 115.539 796.242 115.746 795.914 115.895C795.586 116.043 795.205 116.117 794.771 116.117C794.311 116.117 793.908 116.023 793.564 115.836C793.221 115.645 792.936 115.391 792.709 115.074C792.482 114.758 792.312 114.406 792.199 114.02C792.086 113.633 792.029 113.24 792.029 112.842V112.332C792.029 111.73 792.09 111.141 792.211 110.563C792.332 109.984 792.541 109.461 792.838 108.992C793.139 108.523 793.555 108.15 794.086 107.873C794.617 107.596 795.295 107.457 796.119 107.457ZM804.064 111.055V112.355C804.064 113.055 804.002 113.645 803.877 114.125C803.752 114.605 803.572 114.992 803.338 115.285C803.104 115.578 802.82 115.791 802.488 115.924C802.16 116.053 801.789 116.117 801.375 116.117C801.047 116.117 800.744 116.076 800.467 115.994C800.189 115.912 799.939 115.781 799.717 115.602C799.498 115.418 799.311 115.18 799.154 114.887C798.998 114.594 798.879 114.238 798.797 113.82C798.715 113.402 798.674 112.914 798.674 112.355V111.055C798.674 110.355 798.736 109.77 798.861 109.297C798.99 108.824 799.172 108.445 799.406 108.16C799.641 107.871 799.922 107.664 800.25 107.539C800.582 107.414 800.953 107.352 801.363 107.352C801.695 107.352 802 107.393 802.277 107.475C802.559 107.553 802.809 107.68 803.027 107.855C803.246 108.027 803.432 108.258 803.584 108.547C803.74 108.832 803.859 109.182 803.941 109.596C804.023 110.01 804.064 110.496 804.064 111.055ZM802.975 112.531V110.873C802.975 110.49 802.951 110.154 802.904 109.865C802.861 109.572 802.797 109.322 802.711 109.115C802.625 108.908 802.516 108.74 802.383 108.611C802.254 108.482 802.104 108.389 801.932 108.33C801.764 108.268 801.574 108.236 801.363 108.236C801.105 108.236 800.877 108.285 800.678 108.383C800.479 108.477 800.311 108.627 800.174 108.834C800.041 109.041 799.939 109.313 799.869 109.648C799.799 109.984 799.764 110.393 799.764 110.873V112.531C799.764 112.914 799.785 113.252 799.828 113.545C799.875 113.838 799.943 114.092 800.033 114.307C800.123 114.518 800.232 114.691 800.361 114.828C800.49 114.965 800.639 115.066 800.807 115.133C800.979 115.195 801.168 115.227 801.375 115.227C801.641 115.227 801.873 115.176 802.072 115.074C802.271 114.973 802.438 114.814 802.57 114.6C802.707 114.381 802.809 114.102 802.875 113.762C802.941 113.418 802.975 113.008 802.975 112.531Z" fill="black" fill-opacity="0.8"/>
<path d="M831.338 113.691C831.338 114.211 831.217 114.652 830.975 115.016C830.736 115.375 830.412 115.648 830.002 115.836C829.596 116.023 829.137 116.117 828.625 116.117C828.113 116.117 827.652 116.023 827.242 115.836C826.832 115.648 826.508 115.375 826.27 115.016C826.031 114.652 825.912 114.211 825.912 113.691C825.912 113.352 825.977 113.041 826.105 112.76C826.238 112.475 826.424 112.227 826.662 112.016C826.904 111.805 827.189 111.643 827.518 111.529C827.85 111.412 828.215 111.354 828.613 111.354C829.137 111.354 829.604 111.455 830.014 111.658C830.424 111.857 830.746 112.133 830.98 112.484C831.219 112.836 831.338 113.238 831.338 113.691ZM830.248 113.668C830.248 113.352 830.18 113.072 830.043 112.83C829.906 112.584 829.715 112.393 829.469 112.256C829.223 112.119 828.938 112.051 828.613 112.051C828.281 112.051 827.994 112.119 827.752 112.256C827.514 112.393 827.328 112.584 827.195 112.83C827.062 113.072 826.996 113.352 826.996 113.668C826.996 113.996 827.061 114.277 827.189 114.512C827.322 114.742 827.51 114.92 827.752 115.045C827.998 115.166 828.289 115.227 828.625 115.227C828.961 115.227 829.25 115.166 829.492 115.045C829.734 114.92 829.92 114.742 830.049 114.512C830.182 114.277 830.248 113.996 830.248 113.668ZM831.139 109.689C831.139 110.104 831.029 110.477 830.811 110.809C830.592 111.141 830.293 111.402 829.914 111.594C829.535 111.785 829.105 111.881 828.625 111.881C828.137 111.881 827.701 111.785 827.318 111.594C826.939 111.402 826.643 111.141 826.428 110.809C826.213 110.477 826.105 110.104 826.105 109.689C826.105 109.193 826.213 108.772 826.428 108.424C826.646 108.076 826.945 107.811 827.324 107.627C827.703 107.443 828.135 107.352 828.619 107.352C829.107 107.352 829.541 107.443 829.92 107.627C830.299 107.811 830.596 108.076 830.811 108.424C831.029 108.772 831.139 109.193 831.139 109.689ZM830.055 109.707C830.055 109.422 829.994 109.17 829.873 108.951C829.752 108.732 829.584 108.561 829.369 108.436C829.154 108.307 828.904 108.242 828.619 108.242C828.334 108.242 828.084 108.303 827.869 108.424C827.658 108.541 827.492 108.709 827.371 108.928C827.254 109.147 827.195 109.406 827.195 109.707C827.195 110 827.254 110.256 827.371 110.475C827.492 110.693 827.66 110.863 827.875 110.984C828.09 111.105 828.34 111.166 828.625 111.166C828.91 111.166 829.158 111.105 829.369 110.984C829.584 110.863 829.752 110.693 829.873 110.475C829.994 110.256 830.055 110 830.055 109.707ZM838.064 111.055V112.355C838.064 113.055 838.002 113.645 837.877 114.125C837.752 114.605 837.572 114.992 837.338 115.285C837.104 115.578 836.82 115.791 836.488 115.924C836.16 116.053 835.789 116.117 835.375 116.117C835.047 116.117 834.744 116.076 834.467 115.994C834.189 115.912 833.939 115.781 833.717 115.602C833.498 115.418 833.311 115.18 833.154 114.887C832.998 114.594 832.879 114.238 832.797 113.82C832.715 113.402 832.674 112.914 832.674 112.355V111.055C832.674 110.355 832.736 109.77 832.861 109.297C832.99 108.824 833.172 108.445 833.406 108.16C833.641 107.871 833.922 107.664 834.25 107.539C834.582 107.414 834.953 107.352 835.363 107.352C835.695 107.352 836 107.393 836.277 107.475C836.559 107.553 836.809 107.68 837.027 107.855C837.246 108.027 837.432 108.258 837.584 108.547C837.74 108.832 837.859 109.182 837.941 109.596C838.023 110.01 838.064 110.496 838.064 111.055ZM836.975 112.531V110.873C836.975 110.49 836.951 110.154 836.904 109.865C836.861 109.572 836.797 109.322 836.711 109.115C836.625 108.908 836.516 108.74 836.383 108.611C836.254 108.482 836.104 108.389 835.932 108.33C835.764 108.268 835.574 108.236 835.363 108.236C835.105 108.236 834.877 108.285 834.678 108.383C834.479 108.477 834.311 108.627 834.174 108.834C834.041 109.041 833.939 109.313 833.869 109.648C833.799 109.984 833.764 110.393 833.764 110.873V112.531C833.764 112.914 833.785 113.252 833.828 113.545C833.875 113.838 833.943 114.092 834.033 114.307C834.123 114.518 834.232 114.691 834.361 114.828C834.49 114.965 834.639 115.066 834.807 115.133C834.979 115.195 835.168 115.227 835.375 115.227C835.641 115.227 835.873 115.176 836.072 115.074C836.271 114.973 836.438 114.814 836.57 114.6C836.707 114.381 836.809 114.102 836.875 113.762C836.941 113.418 836.975 113.008 836.975 112.531Z" fill="black" fill-opacity="0.8"/>
<path d="M864.646 107.422V116H863.562V108.775L861.377 109.572V108.594L864.477 107.422H864.646ZM873.189 111.055V112.355C873.189 113.055 873.127 113.645 873.002 114.125C872.877 114.605 872.697 114.992 872.463 115.285C872.229 115.578 871.945 115.791 871.613 115.924C871.285 116.053 870.914 116.117 870.5 116.117C870.172 116.117 869.869 116.076 869.592 115.994C869.314 115.912 869.064 115.781 868.842 115.602C868.623 115.418 868.436 115.18 868.279 114.887C868.123 114.594 868.004 114.238 867.922 113.82C867.84 113.402 867.799 112.914 867.799 112.355V111.055C867.799 110.355 867.861 109.77 867.986 109.297C868.115 108.824 868.297 108.445 868.531 108.16C868.766 107.871 869.047 107.664 869.375 107.539C869.707 107.414 870.078 107.352 870.488 107.352C870.82 107.352 871.125 107.393 871.402 107.475C871.684 107.553 871.934 107.68 872.152 107.855C872.371 108.027 872.557 108.258 872.709 108.547C872.865 108.832 872.984 109.182 873.066 109.596C873.148 110.01 873.189 110.496 873.189 111.055ZM872.1 112.531V110.873C872.1 110.49 872.076 110.154 872.029 109.865C871.986 109.572 871.922 109.322 871.836 109.115C871.75 108.908 871.641 108.74 871.508 108.611C871.379 108.482 871.229 108.389 871.057 108.33C870.889 108.268 870.699 108.236 870.488 108.236C870.23 108.236 870.002 108.285 869.803 108.383C869.604 108.477 869.436 108.627 869.299 108.834C869.166 109.041 869.064 109.313 868.994 109.648C868.924 109.984 868.889 110.393 868.889 110.873V112.531C868.889 112.914 868.91 113.252 868.953 113.545C869 113.838 869.068 114.092 869.158 114.307C869.248 114.518 869.357 114.691 869.486 114.828C869.615 114.965 869.764 115.066 869.932 115.133C870.104 115.195 870.293 115.227 870.5 115.227C870.766 115.227 870.998 115.176 871.197 115.074C871.396 114.973 871.562 114.814 871.695 114.6C871.832 114.381 871.934 114.102 872 113.762C872.066 113.418 872.1 113.008 872.1 112.531ZM879.939 111.055V112.355C879.939 113.055 879.877 113.645 879.752 114.125C879.627 114.605 879.447 114.992 879.213 115.285C878.979 115.578 878.695 115.791 878.363 115.924C878.035 116.053 877.664 116.117 877.25 116.117C876.922 116.117 876.619 116.076 876.342 115.994C876.064 115.912 875.814 115.781 875.592 115.602C875.373 115.418 875.186 115.18 875.029 114.887C874.873 114.594 874.754 114.238 874.672 113.82C874.59 113.402 874.549 112.914 874.549 112.355V111.055C874.549 110.355 874.611 109.77 874.736 109.297C874.865 108.824 875.047 108.445 875.281 108.16C875.516 107.871 875.797 107.664 876.125 107.539C876.457 107.414 876.828 107.352 877.238 107.352C877.57 107.352 877.875 107.393 878.152 107.475C878.434 107.553 878.684 107.68 878.902 107.855C879.121 108.027 879.307 108.258 879.459 108.547C879.615 108.832 879.734 109.182 879.816 109.596C879.898 110.01 879.939 110.496 879.939 111.055ZM878.85 112.531V110.873C878.85 110.49 878.826 110.154 878.779 109.865C878.736 109.572 878.672 109.322 878.586 109.115C878.5 108.908 878.391 108.74 878.258 108.611C878.129 108.482 877.979 108.389 877.807 108.33C877.639 108.268 877.449 108.236 877.238 108.236C876.98 108.236 876.752 108.285 876.553 108.383C876.354 108.477 876.186 108.627 876.049 108.834C875.916 109.041 875.814 109.313 875.744 109.648C875.674 109.984 875.639 110.393 875.639 110.873V112.531C875.639 112.914 875.66 113.252 875.703 113.545C875.75 113.838 875.818 114.092 875.908 114.307C875.998 114.518 876.107 114.691 876.236 114.828C876.365 114.965 876.514 115.066 876.682 115.133C876.854 115.195 877.043 115.227 877.25 115.227C877.516 115.227 877.748 115.176 877.947 115.074C878.146 114.973 878.312 114.814 878.445 114.6C878.582 114.381 878.684 114.102 878.75 113.762C878.816 113.418 878.85 113.008 878.85 112.531Z" fill="black" fill-opacity="0.8"/>
<path d="M687.939 107.469V117.582H687.066V107.469H687.939Z" fill="black" fill-opacity="0.4"/>
<path d="M713.939 107.469V117.582H713.066V107.469H713.939Z" fill="black" fill-opacity="0.4"/>
<path d="M747.939 107.469V117.582H747.066V107.469H747.939Z" fill="black" fill-opacity="0.4"/>
<path d="M781.939 107.469V117.582H781.066V107.469H781.939Z" fill="black" fill-opacity="0.4"/>
<path d="M815.939 107.469V117.582H815.066V107.469H815.939Z" fill="black" fill-opacity="0.4"/>
<path d="M849.939 107.469V117.582H849.066V107.469H849.939Z" fill="black" fill-opacity="0.4"/>
<path d="M891.939 107.469V117.582H891.066V107.469H891.939Z" fill="black" fill-opacity="0.4"/>
<rect x="1006.5" y="92.5" width="157" height="97" rx="8.5" fill="#EBE9EC" stroke="#B9B7BA" stroke-width="3"/>
<rect x="1061.76" y="137" width="10" height="30" rx="5" transform="rotate(15 1061.76 137)" fill="#65696A"/>
<rect x="1073.19" y="137" width="10" height="30" rx="5" transform="rotate(15 1073.19 137)" fill="#65696A"/>
<rect x="1084.61" y="137" width="10" height="30" rx="5" transform="rotate(15 1084.61 137)" fill="#65696A"/>
<rect x="1096.04" y="137" width="10" height="30" rx="5" transform="rotate(15 1096.04 137)" fill="#65696A"/>
<rect x="1107.46" y="137" width="10" height="30" rx="5" transform="rotate(15 1107.46 137)" fill="#65696A"/>
<path d="M1049.81 148H1040L1053.94 161L1056 154L1049.81 148Z" fill="#65696A"/>
<path d="M1127.5 149H1116L1118 143H1130L1127.5 149Z" fill="#65696A"/>
<path d="M1135.57 85.5C1135.57 58.1633 1135.57 16 1135.57 16L1141 16L1131.77 1.99998L1122 16L1126.89 16C1126.89 16 1126.89 58.6633 1126.89 86" stroke="black" stroke-width="2"/>
<path d="M1141 17.0001H1122L1131.76 2.00012L1141 17.0001Z" fill="black"/>
<path d="M1139.46 91C1139.46 94.7902 1136.1 98 1131.77 98C1127.45 98 1124.09 94.7902 1124.09 91C1124.09 87.2099 1127.45 84 1131.77 84C1136.1 84 1139.46 87.2099 1139.46 91Z" stroke="black" stroke-width="2"/>
<ellipse cx="1131.77" cy="91" rx="3.25714" ry="3" fill="black"/>
<path d="M1140 80H1149.5L1140 64H1149.5L1140 80Z" stroke="black" stroke-width="2"/>
<path d="M1039.14 11.4059C1039.14 40.1403 1039.14 84.985 1039.14 84.985H1034L1042.73 99L1051.97 84.985H1047.35C1047.35 84.985 1047.35 42.2758 1047.35 14.9096M1039.14 11.4059C1042.73 9.90424 1044.78 12.9075 1047.35 14.9096M1039.14 11.4059C1037.13 11.9923 1034 12.9075 1034 12.9075M1047.35 14.9096C1051.97 16.4112 1053 11.9064 1053 11.9064" stroke="black" stroke-width="2"/>
<path d="M1034 84L1053 84L1043.24 99L1034 84Z" fill="black"/>
<path d="M1052 80H1061.5L1052 64H1061.5L1052 80Z" stroke="black" stroke-width="2"/>
<rect x="1164" y="225" width="217" height="56" fill="#F6F6F8" stroke="#B9B7BA" stroke-width="2"/>
<path d="M1186.69 236.055V237.355C1186.69 238.055 1186.63 238.645 1186.5 239.125C1186.38 239.605 1186.2 239.992 1185.96 240.285C1185.73 240.578 1185.45 240.791 1185.11 240.924C1184.79 241.053 1184.41 241.117 1184 241.117C1183.67 241.117 1183.37 241.076 1183.09 240.994C1182.81 240.912 1182.56 240.781 1182.34 240.602C1182.12 240.418 1181.94 240.18 1181.78 239.887C1181.62 239.594 1181.5 239.238 1181.42 238.82C1181.34 238.402 1181.3 237.914 1181.3 237.355V236.055C1181.3 235.355 1181.36 234.77 1181.49 234.297C1181.62 233.824 1181.8 233.445 1182.03 233.16C1182.27 232.871 1182.55 232.664 1182.88 232.539C1183.21 232.414 1183.58 232.352 1183.99 232.352C1184.32 232.352 1184.62 232.393 1184.9 232.475C1185.18 232.553 1185.43 232.68 1185.65 232.855C1185.87 233.027 1186.06 233.258 1186.21 233.547C1186.37 233.832 1186.48 234.182 1186.57 234.596C1186.65 235.01 1186.69 235.496 1186.69 236.055ZM1185.6 237.531V235.873C1185.6 235.49 1185.58 235.154 1185.53 234.865C1185.49 234.572 1185.42 234.322 1185.34 234.115C1185.25 233.908 1185.14 233.74 1185.01 233.611C1184.88 233.482 1184.73 233.389 1184.56 233.33C1184.39 233.268 1184.2 233.236 1183.99 233.236C1183.73 233.236 1183.5 233.285 1183.3 233.383C1183.1 233.477 1182.94 233.627 1182.8 233.834C1182.67 234.041 1182.56 234.313 1182.49 234.648C1182.42 234.984 1182.39 235.393 1182.39 235.873V237.531C1182.39 237.914 1182.41 238.252 1182.45 238.545C1182.5 238.838 1182.57 239.092 1182.66 239.307C1182.75 239.518 1182.86 239.691 1182.99 239.828C1183.12 239.965 1183.26 240.066 1183.43 240.133C1183.6 240.195 1183.79 240.227 1184 240.227C1184.27 240.227 1184.5 240.176 1184.7 240.074C1184.9 239.973 1185.06 239.814 1185.2 239.6C1185.33 239.381 1185.43 239.102 1185.5 238.762C1185.57 238.418 1185.6 238.008 1185.6 237.531Z" fill="black" fill-opacity="0.8"/>
<path d="M1214.4 232.422V241H1213.31V233.775L1211.13 234.572V233.594L1214.23 232.422H1214.4Z" fill="black" fill-opacity="0.8"/>
<path d="M1245.42 240.109V241H1239.84V240.221L1242.63 237.109C1242.98 236.727 1243.24 236.402 1243.43 236.137C1243.62 235.867 1243.76 235.627 1243.83 235.416C1243.91 235.201 1243.95 234.982 1243.95 234.76C1243.95 234.479 1243.89 234.225 1243.77 233.998C1243.66 233.768 1243.49 233.584 1243.27 233.447C1243.04 233.311 1242.78 233.242 1242.46 233.242C1242.08 233.242 1241.76 233.316 1241.51 233.465C1241.26 233.609 1241.07 233.813 1240.95 234.074C1240.82 234.336 1240.76 234.637 1240.76 234.977H1239.68C1239.68 234.496 1239.78 234.057 1239.99 233.658C1240.2 233.26 1240.52 232.943 1240.93 232.709C1241.34 232.471 1241.85 232.352 1242.46 232.352C1243 232.352 1243.46 232.447 1243.84 232.639C1244.22 232.826 1244.52 233.092 1244.72 233.436C1244.93 233.775 1245.03 234.174 1245.03 234.631C1245.03 234.881 1244.99 235.135 1244.9 235.393C1244.82 235.647 1244.71 235.9 1244.56 236.154C1244.41 236.408 1244.24 236.658 1244.05 236.904C1243.86 237.15 1243.65 237.393 1243.43 237.631L1241.15 240.109H1245.42Z" fill="black" fill-opacity="0.8"/>
<path d="M1271.42 236.201H1272.19C1272.57 236.201 1272.88 236.139 1273.13 236.014C1273.38 235.885 1273.56 235.711 1273.68 235.492C1273.81 235.27 1273.87 235.02 1273.87 234.742C1273.87 234.414 1273.82 234.139 1273.71 233.916C1273.6 233.693 1273.43 233.525 1273.21 233.412C1273 233.299 1272.72 233.242 1272.38 233.242C1272.08 233.242 1271.81 233.303 1271.57 233.424C1271.34 233.541 1271.16 233.709 1271.03 233.928C1270.9 234.147 1270.84 234.404 1270.84 234.701H1269.75C1269.75 234.268 1269.86 233.873 1270.08 233.518C1270.3 233.162 1270.61 232.879 1271 232.668C1271.4 232.457 1271.86 232.352 1272.38 232.352C1272.9 232.352 1273.35 232.443 1273.74 232.627C1274.12 232.807 1274.42 233.076 1274.64 233.436C1274.85 233.791 1274.96 234.234 1274.96 234.766C1274.96 234.98 1274.91 235.211 1274.81 235.457C1274.71 235.699 1274.56 235.926 1274.35 236.137C1274.14 236.348 1273.87 236.522 1273.54 236.658C1273.21 236.791 1272.81 236.857 1272.34 236.857H1271.42V236.201ZM1271.42 237.092V236.441H1272.34C1272.88 236.441 1273.33 236.506 1273.69 236.635C1274.04 236.764 1274.32 236.936 1274.53 237.15C1274.73 237.365 1274.88 237.602 1274.96 237.859C1275.05 238.113 1275.09 238.367 1275.09 238.621C1275.09 239.02 1275.02 239.373 1274.88 239.682C1274.75 239.99 1274.56 240.252 1274.32 240.467C1274.07 240.682 1273.79 240.844 1273.46 240.953C1273.13 241.063 1272.78 241.117 1272.39 241.117C1272.02 241.117 1271.67 241.064 1271.34 240.959C1271.02 240.854 1270.73 240.701 1270.48 240.502C1270.23 240.299 1270.03 240.051 1269.89 239.758C1269.75 239.461 1269.68 239.123 1269.68 238.744H1270.77C1270.77 239.041 1270.83 239.301 1270.96 239.523C1271.09 239.746 1271.28 239.92 1271.52 240.045C1271.77 240.166 1272.06 240.227 1272.39 240.227C1272.72 240.227 1273.01 240.17 1273.24 240.057C1273.49 239.939 1273.67 239.764 1273.8 239.529C1273.93 239.295 1274 239 1274 238.645C1274 238.289 1273.93 237.998 1273.78 237.772C1273.63 237.541 1273.42 237.371 1273.14 237.262C1272.88 237.148 1272.56 237.092 1272.19 237.092H1271.42Z" fill="black" fill-opacity="0.8"/>
<path d="M1305.6 238.129V239.02H1299.44V238.381L1303.26 232.469H1304.14L1303.19 234.18L1300.67 238.129H1305.6ZM1304.41 232.469V241H1303.33V232.469H1304.41Z" fill="black" fill-opacity="0.8"/>
<path d="M1331.21 236.939L1330.34 236.717L1330.77 232.469H1335.14V233.471H1331.69L1331.43 235.791C1331.58 235.701 1331.78 235.617 1332.02 235.539C1332.26 235.461 1332.54 235.422 1332.85 235.422C1333.25 235.422 1333.6 235.49 1333.91 235.627C1334.22 235.76 1334.49 235.951 1334.71 236.201C1334.93 236.451 1335.1 236.752 1335.22 237.104C1335.34 237.455 1335.39 237.848 1335.39 238.281C1335.39 238.691 1335.34 239.068 1335.22 239.412C1335.12 239.756 1334.95 240.057 1334.73 240.314C1334.5 240.568 1334.22 240.766 1333.88 240.906C1333.55 241.047 1333.15 241.117 1332.69 241.117C1332.35 241.117 1332.02 241.07 1331.71 240.977C1331.41 240.879 1331.14 240.732 1330.89 240.537C1330.66 240.338 1330.46 240.092 1330.31 239.799C1330.16 239.502 1330.07 239.154 1330.03 238.756H1331.06C1331.11 239.076 1331.2 239.346 1331.34 239.564C1331.48 239.783 1331.66 239.949 1331.89 240.063C1332.12 240.172 1332.39 240.227 1332.69 240.227C1332.95 240.227 1333.18 240.182 1333.38 240.092C1333.58 240.002 1333.75 239.873 1333.88 239.705C1334.02 239.537 1334.12 239.334 1334.19 239.096C1334.27 238.857 1334.3 238.59 1334.3 238.293C1334.3 238.023 1334.27 237.773 1334.19 237.543C1334.12 237.313 1334.01 237.111 1333.86 236.939C1333.71 236.768 1333.54 236.635 1333.33 236.541C1333.12 236.443 1332.87 236.395 1332.6 236.395C1332.24 236.395 1331.96 236.443 1331.77 236.541C1331.59 236.639 1331.4 236.772 1331.21 236.939Z" fill="black" fill-opacity="0.8"/>
<path d="M1362.99 232.457H1363.09V233.377H1362.99C1362.42 233.377 1361.94 233.471 1361.55 233.658C1361.17 233.842 1360.86 234.09 1360.63 234.402C1360.41 234.711 1360.24 235.059 1360.14 235.445C1360.04 235.832 1359.99 236.225 1359.99 236.623V237.877C1359.99 238.256 1360.04 238.592 1360.13 238.885C1360.22 239.174 1360.34 239.418 1360.5 239.617C1360.65 239.816 1360.83 239.967 1361.03 240.068C1361.22 240.17 1361.43 240.221 1361.65 240.221C1361.9 240.221 1362.12 240.174 1362.31 240.08C1362.51 239.982 1362.67 239.848 1362.81 239.676C1362.94 239.5 1363.05 239.293 1363.12 239.055C1363.19 238.816 1363.22 238.555 1363.22 238.27C1363.22 238.016 1363.19 237.772 1363.13 237.537C1363.07 237.299 1362.97 237.088 1362.84 236.904C1362.71 236.717 1362.55 236.57 1362.36 236.465C1362.16 236.355 1361.94 236.301 1361.67 236.301C1361.37 236.301 1361.09 236.375 1360.83 236.523C1360.57 236.668 1360.36 236.859 1360.19 237.098C1360.02 237.332 1359.93 237.588 1359.91 237.865L1359.33 237.859C1359.39 237.422 1359.49 237.049 1359.64 236.74C1359.79 236.428 1359.98 236.174 1360.2 235.979C1360.43 235.779 1360.68 235.635 1360.96 235.545C1361.24 235.451 1361.53 235.404 1361.85 235.404C1362.27 235.404 1362.64 235.484 1362.95 235.645C1363.26 235.805 1363.51 236.02 1363.71 236.289C1363.91 236.555 1364.05 236.855 1364.15 237.191C1364.25 237.523 1364.29 237.865 1364.29 238.217C1364.29 238.619 1364.24 238.996 1364.12 239.348C1364.01 239.699 1363.84 240.008 1363.62 240.273C1363.39 240.539 1363.12 240.746 1362.79 240.895C1362.46 241.043 1362.08 241.117 1361.65 241.117C1361.19 241.117 1360.78 241.023 1360.44 240.836C1360.1 240.645 1359.81 240.391 1359.58 240.074C1359.36 239.758 1359.19 239.406 1359.07 239.02C1358.96 238.633 1358.9 238.24 1358.9 237.842V237.332C1358.9 236.73 1358.96 236.141 1359.09 235.563C1359.21 234.984 1359.42 234.461 1359.71 233.992C1360.01 233.523 1360.43 233.15 1360.96 232.873C1361.49 232.596 1362.17 232.457 1362.99 232.457Z" fill="black" fill-opacity="0.8"/>
<path d="M1169.94 232.469V242.582H1169.07V232.469H1169.94Z" fill="black" fill-opacity="0.4"/>
<path d="M1198.94 232.469V242.582H1198.07V232.469H1198.94Z" fill="black" fill-opacity="0.4"/>
<path d="M1228.44 232.469V242.582H1227.57V232.469H1228.44Z" fill="black" fill-opacity="0.4"/>
<path d="M1257.94 232.469V242.582H1257.07V232.469H1257.94Z" fill="black" fill-opacity="0.4"/>
<path d="M1287.94 232.469V242.582H1287.07V232.469H1287.94Z" fill="black" fill-opacity="0.4"/>
<path d="M1317.94 232.469V242.582H1317.07V232.469H1317.94Z" fill="black" fill-opacity="0.4"/>
<path d="M1347.44 232.469V242.582H1346.57V232.469H1347.44Z" fill="black" fill-opacity="0.4"/>
<path d="M1376.94 232.469V242.582H1376.07V232.469H1376.94Z" fill="black" fill-opacity="0.4"/>
<rect x="1169" y="248" width="1" height="29" fill="#E34732"/>
<rect x="1376" y="248" width="1" height="29" fill="#E34732"/>
<rect x="207" y="188" width="163" height="42" fill="#F6F6F8" stroke="#6C686F" stroke-width="2"/>
<rect y="510" width="140" height="146" rx="8" fill="#414C4E"/>
<rect x="466" y="604" width="140" height="146" rx="8" fill="#414C4E"/>
<rect x="799" y="524" width="140" height="146" rx="8" fill="#414C4E"/>
<rect x="1143" y="524" width="140" height="146" rx="8" fill="#414C4E"/>
<rect y="413" width="140" height="66" rx="8" fill="#414C4E"/>
<rect x="466" y="238" width="140" height="66" rx="8" fill="#414C4E"/>
<rect x="646" y="238" width="140" height="66" rx="8" fill="#414C4E"/>
<rect x="646" y="524" width="140" height="66" rx="8" fill="#414C4E"/>
<rect x="466" y="524" width="140" height="66" rx="8" fill="#414C4E"/>
<rect x="1049" y="200" width="80" height="37" rx="8" fill="#414C4E"/>
<rect x="916" y="119" width="80" height="37" rx="8" fill="#414C4E"/>
<rect x="1005" y="25" width="80" height="37" rx="8" fill="#414C4E"/>
<rect x="1092" y="25" width="80" height="37" rx="8" fill="#414C4E"/>
<defs>
<linearGradient id="paint0_linear_27_577" x1="381.502" y1="446" x2="382.003" y2="476" gradientUnits="userSpaceOnUse">
<stop stop-color="#ADADAD"/>
<stop offset="0.53125" stop-color="white"/>
<stop offset="1" stop-color="#B0B0B0"/>
</linearGradient>
<linearGradient id="paint1_linear_27_577" x1="978.196" y1="374" x2="978.507" y2="404.005" gradientUnits="userSpaceOnUse">
<stop stop-color="#ADADAD"/>
<stop offset="0.53125" stop-color="white"/>
<stop offset="1" stop-color="#B0B0B0"/>
</linearGradient>
<linearGradient id="paint2_linear_27_577" x1="189.5" y1="432" x2="189.5" y2="496" gradientUnits="userSpaceOnUse">
<stop stop-color="#C1C1C1"/>
<stop offset="0.520833" stop-color="#FFFCFC"/>
<stop offset="1" stop-color="#D9D9D9"/>
</linearGradient>
<linearGradient id="paint3_linear_27_577" x1="386.5" y1="432" x2="386.5" y2="496" gradientUnits="userSpaceOnUse">
<stop stop-color="#C1C1C1"/>
<stop offset="0.520833" stop-color="#FFFCFC"/>
<stop offset="1" stop-color="#D9D9D9"/>
</linearGradient>
<linearGradient id="paint4_linear_27_577" x1="868.5" y1="344" x2="868.5" y2="408" gradientUnits="userSpaceOnUse">
<stop stop-color="#C1C1C1"/>
<stop offset="0.520833" stop-color="#FFFCFC"/>
<stop offset="1" stop-color="#D9D9D9"/>
</linearGradient>
<linearGradient id="paint5_linear_27_577" x1="1212.5" y1="344" x2="1212.5" y2="408" gradientUnits="userSpaceOnUse">
<stop stop-color="#C1C1C1"/>
<stop offset="0.520833" stop-color="#FFFCFC"/>
<stop offset="1" stop-color="#D9D9D9"/>
</linearGradient>
<linearGradient id="paint6_linear_27_577" x1="479" y1="424" x2="479" y2="493" gradientUnits="userSpaceOnUse">
<stop stop-color="#8D8D8D"/>
<stop offset="0.104167" stop-color="#A3A3A3"/>
<stop offset="0.541667" stop-color="white"/>
<stop offset="1" stop-color="#6C6C6C"/>
</linearGradient>
<linearGradient id="paint7_linear_27_577" x1="781" y1="351" x2="781" y2="420" gradientUnits="userSpaceOnUse">
<stop stop-color="#8D8D8D"/>
<stop offset="0.104167" stop-color="#A3A3A3"/>
<stop offset="0.541667" stop-color="white"/>
<stop offset="1" stop-color="#6C6C6C"/>
</linearGradient>
</defs>
</svg>
