<svg width="423" height="229" viewBox="0 0 423 229" fill="none" xmlns="http://www.w3.org/2000/svg">
<rect x="222" y="65" width="165" height="17" fill="#3B4747"/>
<rect x="22" y="109" width="116" height="17" fill="#3B4747"/>
<path d="M113 209H21V194L48 161V71L21 37V22H113V37L85 71V161L113 194V209Z" fill="#687273"/>
<rect x="127" y="53" width="103" height="85" rx="4" fill="#687273"/>
<rect x="144" y="69" width="30" height="21" fill="#425050"/>
<rect x="184" y="69" width="30" height="21" fill="#425050"/>
<rect x="184" y="100" width="30" height="21" fill="#425050"/>
<rect x="144" y="100" width="30" height="21" fill="#425050"/>
<rect x="17" y="92" width="25" height="50" rx="4" fill="#687273"/>
<rect x="22" y="103" width="15" height="28" rx="4" fill="#3B4747"/>
<rect x="246" y="48" width="25" height="50" rx="4" fill="#687273"/>
<rect x="251" y="59" width="15" height="28" rx="4" fill="#3B4747"/>
<rect x="92" y="92" width="25" height="50" rx="4" fill="#687273"/>
<rect x="97" y="103" width="15" height="28" rx="4" fill="#3B4747"/>
<rect x="381" y="48" width="25" height="50" rx="4" fill="#687273"/>
<rect x="386" y="59" width="15" height="28" rx="4" fill="#3B4747"/>
<rect x="278" y="31" width="96" height="79" rx="2" fill="#687273"/>
<rect x="50" y="155" width="33" height="4" fill="#D9D9D9" fill-opacity="0.6"/>
<rect x="50" y="131" width="33" height="4" fill="#D9D9D9" fill-opacity="0.6"/>
<rect x="50" y="107" width="33" height="4" fill="#D9D9D9" fill-opacity="0.6"/>
<rect x="50" y="83" width="33" height="4" fill="#D9D9D9" fill-opacity="0.6"/>
<rect x="50" y="147" width="33" height="4" fill="#D9D9D9" fill-opacity="0.6"/>
<rect x="50" y="123" width="33" height="4" fill="#D9D9D9" fill-opacity="0.6"/>
<rect x="50" y="99" width="33" height="4" fill="#D9D9D9" fill-opacity="0.6"/>
<rect x="50" y="75" width="33" height="4" fill="#D9D9D9" fill-opacity="0.6"/>
<rect x="50" y="139" width="33" height="4" fill="#D9D9D9" fill-opacity="0.6"/>
<rect x="50" y="115" width="33" height="4" fill="#D9D9D9" fill-opacity="0.6"/>
<rect x="50" y="91" width="33" height="4" fill="#D9D9D9" fill-opacity="0.6"/>
<rect x="4.5" y="3.5" width="414" height="222" rx="6.5" stroke="#687273" stroke-opacity="0.5" stroke-width="3"/>
<circle cx="179" cy="61" r="2" fill="#D9D9D9"/>
<circle cx="179" cy="129" r="2" fill="#D9D9D9"/>
<circle cx="179" cy="95" r="2" fill="#D9D9D9"/>
<circle cx="135" cy="61" r="2" fill="#D9D9D9"/>
<circle cx="135" cy="129" r="2" fill="#D9D9D9"/>
<circle cx="223" cy="61" r="2" fill="#D9D9D9"/>
<circle cx="223" cy="129" r="2" fill="#D9D9D9"/>
<circle cx="223" cy="95" r="2" fill="#D9D9D9"/>
<circle cx="135" cy="95" r="2" fill="#D9D9D9"/>
</svg>
