<svg width="12" height="15" viewBox="0 0 12 15" fill="none" xmlns="http://www.w3.org/2000/svg">
<path fill-rule="evenodd" clip-rule="evenodd" d="M0.585847 0.777376C0.96092 0.402303 1.46963 0.191589 2.00006 0.191589H7.3334C7.51021 0.191589 7.67978 0.261827 7.8048 0.386852L11.8048 4.38685C11.9298 4.51188 12.0001 4.68144 12.0001 4.85826V12.8583C12.0001 13.3887 11.7893 13.8974 11.4143 14.2725C11.0392 14.6475 10.5305 14.8583 10.0001 14.8583H2.00006C1.46963 14.8583 0.96092 14.6475 0.585847 14.2725C0.210775 13.8974 6.10352e-05 13.3887 6.10352e-05 12.8583V2.19159C6.10352e-05 1.66116 0.210775 1.15245 0.585847 0.777376ZM2.00006 1.52492C1.82325 1.52492 1.65368 1.59516 1.52866 1.72018C1.40363 1.84521 1.33339 2.01478 1.33339 2.19159V12.8583C1.33339 13.0351 1.40363 13.2046 1.52866 13.3297C1.65368 13.4547 1.82325 13.5249 2.00006 13.5249H10.0001C10.1769 13.5249 10.3464 13.4547 10.4715 13.3297C10.5965 13.2046 10.6667 13.0351 10.6667 12.8583V5.52492H7.3334C6.96521 5.52492 6.66673 5.22645 6.66673 4.85826V1.52492H2.00006ZM8.00006 2.46773L9.72392 4.19159H8.00006V2.46773ZM2.66673 5.52492C2.66673 5.15673 2.9652 4.85826 3.33339 4.85826H4.66673C5.03492 4.85826 5.3334 5.15673 5.3334 5.52492C5.3334 5.89311 5.03492 6.19159 4.66673 6.19159H3.33339C2.9652 6.19159 2.66673 5.89311 2.66673 5.52492ZM2.66673 8.19159C2.66673 7.8234 2.9652 7.52492 3.33339 7.52492H8.66673C9.03492 7.52492 9.3334 7.8234 9.3334 8.19159C9.3334 8.55978 9.03492 8.85826 8.66673 8.85826H3.33339C2.9652 8.85826 2.66673 8.55978 2.66673 8.19159ZM2.66673 10.8583C2.66673 10.4901 2.9652 10.1916 3.33339 10.1916H8.66673C9.03492 10.1916 9.3334 10.4901 9.3334 10.8583C9.3334 11.2264 9.03492 11.5249 8.66673 11.5249H3.33339C2.9652 11.5249 2.66673 11.2264 2.66673 10.8583Z" fill="#FFE3B4"/>
</svg>
