<svg width="17" height="17" viewBox="0 0 17 17" fill="none" xmlns="http://www.w3.org/2000/svg">
<g clip-path="url(#clip0_392_14316)">
<path d="M10.6129 9.97029C10.5774 9.94777 10.5481 9.91662 10.5277 9.87975C10.5074 9.84287 10.4967 9.80146 10.4967 9.75935V3.02435C10.4967 2.62653 10.3387 2.245 10.0574 1.96369C9.77605 1.68239 9.39452 1.52435 8.9967 1.52435C8.59887 1.52435 8.21734 1.68239 7.93604 1.96369C7.65473 2.245 7.4967 2.62653 7.4967 3.02435V9.75935C7.49663 9.80138 7.48597 9.84271 7.46571 9.87952C7.44545 9.91633 7.41623 9.94745 7.38076 9.96998C6.93645 10.2594 6.57536 10.6598 6.33317 11.1315C6.09098 11.6032 5.97608 12.1299 5.99982 12.6597C6.03558 13.4425 6.37624 14.1803 6.94894 14.7152C7.52164 15.2501 8.28091 15.5397 9.06437 15.522C9.84783 15.5043 10.5933 15.1808 11.1413 14.6206C11.6893 14.0604 11.9963 13.308 11.9967 12.5244C11.9969 12.0171 11.8705 11.5178 11.6288 11.0718C11.3872 10.6258 11.038 10.2472 10.6129 9.97029V9.97029Z" stroke="#E32112" stroke-width="1.00189" stroke-miterlimit="10" stroke-linecap="round"/>
<path d="M8.99664 4.02475V12.5248" stroke="#E32112" stroke-width="1.00189" stroke-miterlimit="10" stroke-linecap="round"/>
<path d="M8.99756 14.0254C9.8266 14.0254 10.4987 13.3534 10.4987 12.5243C10.4987 11.6953 9.8266 11.0232 8.99756 11.0232C8.16853 11.0232 7.49646 11.6953 7.49646 12.5243C7.49646 13.3534 8.16853 14.0254 8.99756 14.0254Z" fill="#E32112"/>
</g>
<defs>
<clipPath id="clip0_392_14316">
<rect width="16" height="16" fill="white" transform="translate(0.997009 0.523163)"/>
</clipPath>
</defs>
</svg>
