<svg width="17" height="17" viewBox="0 0 17 17" fill="none" xmlns="http://www.w3.org/2000/svg">
<g clip-path="url(#clip0_392_14480)">
<path d="M10.6125 9.97029C10.5769 9.94777 10.5476 9.91662 10.5273 9.87975C10.5069 9.84287 10.4963 9.80146 10.4962 9.75935V3.02435C10.4962 2.62653 10.3382 2.245 10.0569 1.96369C9.77557 1.68239 9.39404 1.52435 8.99622 1.52435C8.59839 1.52435 8.21686 1.68239 7.93556 1.96369C7.65425 2.245 7.49622 2.62653 7.49622 3.02435V9.75935C7.49615 9.80138 7.48549 9.84271 7.46523 9.87952C7.44496 9.91633 7.41575 9.94745 7.38028 9.96998C6.93597 10.2594 6.57488 10.6598 6.33269 11.1315C6.0905 11.6032 5.9756 12.1299 5.99934 12.6597C6.0351 13.4425 6.37576 14.1803 6.94846 14.7152C7.52116 15.2501 8.28043 15.5397 9.06389 15.522C9.84735 15.5043 10.5928 15.1808 11.1408 14.6206C11.6888 14.0604 11.9958 13.308 11.9962 12.5244C11.9964 12.0171 11.87 11.5178 11.6283 11.0718C11.3867 10.6258 11.0375 10.2472 10.6125 9.97029V9.97029Z" stroke="#868686" stroke-width="1.00189" stroke-miterlimit="10" stroke-linecap="round"/>
<path d="M8.99615 4.02475V12.5248" stroke="#868686" stroke-width="1.00189" stroke-miterlimit="10" stroke-linecap="round"/>
<path d="M8.99708 14.0254C9.82611 14.0254 10.4982 13.3534 10.4982 12.5243C10.4982 11.6953 9.82611 11.0232 8.99708 11.0232C8.16804 11.0232 7.49597 11.6953 7.49597 12.5243C7.49597 13.3534 8.16804 14.0254 8.99708 14.0254Z" fill="#868686"/>
</g>
<defs>
<clipPath id="clip0_392_14480">
<rect width="16" height="16" fill="white" transform="translate(0.996521 0.523163)"/>
</clipPath>
</defs>
</svg>
